<?xml version="1.0" encoding="UTF-8" standalone="no"?>
<svg width="640" xmlns="http://www.w3.org/2000/svg" height="480">
 <g id="svg_1">
  <g fill-rule="evenodd">
   <path id="svg_2" d="m593.27 233.17c5.4483-1.3173 3.4021 4.8538 8.8505 3.5365 2.9028 3.784-4.512 8.583-1.7701 17.68l-3.2446-0.8841-2.0656 2.6523c-3.9563-0.7621-0.71692-8.7138-1.7702-12.378l0.7859-4.8131-4.3261-2.258v-1.7682l2.6553 0.8841 0.8849-2.6524z"/>
   <path id="svg_3" d="m598.29 257.04l2.0657-2.6523c12.159 7.301 22.73 16.19 33.626 24.753 1.2336 8.8925-3.0021 12.323-1.7701 21.215-54.246 4.9174-103.85 10.945-155.75 17.68-16.34 2.1201-35.154 2.9601-49.557 7.0712-21.402 6.111-29.146 21.502-54.865 24.753-12.564 1.5862-21.869-3.1739-35.396-1.7682-16.361 1.6992-35.906 12.975-53.097 19.447-51.162 19.265-104.6 40.25-150.44 63.649-13.764-14.103-21.659-32.717-31.858-49.505-29.543-48.63-61.967-98.768-92.032-148.51-1.5842-5.7078 5.7722-2.4843 7.0803-5.3047l2.6551 0.8841 2.6551-0.8841c36.936 60.931 74.986 120.75 113.27 180.34 1.0532-3.662-2.1878-11.614 1.77-12.376l2.0657 2.6524 3.2445-0.8842c2.3489 7.7519-3.3455 16.559-1.7701 17.68 64.937-31.782 114.34-79.082 212.38-77.793-1.501-20.356 9.2858-28.44 15.927-40.664-2.8021-0.14676-6.7494 0.85056-7.0786-1.7682l0.885-2.6506-0.885-2.6524c1.5064 0.32532 1.6692-0.68964 1.7701-1.7682l2.4002-2.1466-0.6301-3.1581c6.8413 0.23871 6.9794 7.1719 12.389 8.8412l2.1489 2.3976 3.1596-0.6294c-1.1824 7.6581-8.1901 9.4971-8.8486 17.679 8.3371-0.51102 12.53-5.1614 23.007-3.5347 6.9777 1.869 6.7476 10.942 10.62 15.91 34.564-42.673 119.62-34.907 194.68-37.127-2.1046-10.275-7.3528-17.406-7.0803-30.056l3.2427 0.8841z"/>
   <path id="svg_4" d="m19.546 225.21l-3.2446 0.8841c0.14693-2.7991-0.85141-6.744 1.7701-7.0729l2.0657 2.6524 3.2446-0.8841c-0.14693 2.7991 0.85142 6.7422-1.7701 7.0729l-2.0657-2.6524z"/>
   <g id="svg_5" stroke-linecap="round" stroke="#000" fill="none">
    <path id="svg_6" stroke-width="3.162" d="m597.11 253.5c0.39307 1.1794 0.78601 2.3571 1.1789 3.5365"/>
    <path id="svg_7" stroke-width="3.082" d="m18.957 228.75c0.070787-1.1794 0.3257-2.3571 0.58945-3.5365"/>
    <path id="svg_8" stroke-width="3.339" d="m20.137 221.68c1.494-8.7297 2.8056-19.923 11.916-24.046"/>
    <path id="svg_9" stroke-width="2.281" d="m32.054 197.63c55.364-36.701 132.85-95 197.26-40.867"/>
    <path id="svg_10" stroke-width="2.328" d="m229.32 156.77c38.115-63.578 121.42-32.026 182.27-45.518 59.845 42.018 122.3 81.165 180.8 124.58"/>
    <path id="svg_11" stroke-width="3.99" d="m379.5 293.91c48.785-66.618 143.22-42.639 214.56-54.948"/>
    <path id="svg_12" stroke-width="3.038" d="m229.32 156.77c46.116 42.245 89.957 87.159 136.28 129.06"/>
    <path id="svg_13" stroke-width="2.616" d="m32.054 197.63c38.972 54.69 71.391 114.6 109.91 169.9"/>
    <path id="svg_14" stroke-width="2.981" d="m141.96 367.54c70.426-32.049 137.92-86.072 220.35-75.139"/>
    <path id="svg_15" stroke-width="3.728" d="m141.96 367.54c-0.98415 10.319-1.6462 20.676-3.2446 30.94"/>
   </g>
  </g>
 </g>
</svg>
